<svg width="126" height="8" viewBox="0 0 126 8" fill="none" xmlns="http://www.w3.org/2000/svg">
<path fill-rule="evenodd" clip-rule="evenodd" d="M33.4727 8C34.4228 6.93849 35.0005 5.53671 35.0005 4C35.0005 2.46329 34.4228 1.06151 33.4727 0H122C124.209 0 126 1.79086 126 4C126 6.20914 124.209 8 122 8H33.4727ZM24.5283 8H4C1.79086 8 0 6.20914 0 4C0 1.79086 1.79086 0 4 0H24.5283C23.5782 1.06151 23.0005 2.46329 23.0005 4C23.0005 5.53671 23.5782 6.93849 24.5283 8Z" fill="url(#paint0_radial_1010_1119)"/>
<circle cx="29" cy="4" r="4" fill="#F5F4F4"/>
<defs>
<radialGradient id="paint0_radial_1010_1119" cx="0" cy="0" r="1" gradientUnits="userSpaceOnUse" gradientTransform="translate(63 3.99995) scale(63 756.25)">
<stop stop-color="#545454" stop-opacity="0.4"/>
<stop offset="0.451233" stop-color="#8A8A8A" stop-opacity="0.4"/>
<stop offset="1" stop-color="#DADADA"/>
<stop offset="1" stop-color="#DADADA" stop-opacity="0.4"/>
</radialGradient>
</defs>
</svg>
