<svg width="126" height="8" viewBox="0 0 126 8" fill="none" xmlns="http://www.w3.org/2000/svg">
<path fill-rule="evenodd" clip-rule="evenodd" d="M60.4727 8C61.4228 6.93849 62.0005 5.53671 62.0005 4C62.0005 2.46329 61.4228 1.06151 60.4727 0H122C124.209 0 126 1.79086 126 4C126 6.20914 124.209 8 122 8H60.4727ZM51.5283 8H4C1.79086 8 0 6.20914 0 4C0 1.79086 1.79086 0 4 0H51.5283C50.5782 1.06151 50.0005 2.46329 50.0005 4C50.0005 5.53671 50.5782 6.93849 51.5283 8Z" fill="#DADADA" fill-opacity="0.4"/>
<circle cx="56" cy="4" r="4" fill="#F5F4F4"/>
</svg>
