<svg width="126" height="8" viewBox="0 0 126 8" fill="none" xmlns="http://www.w3.org/2000/svg">
<path fill-rule="evenodd" clip-rule="evenodd" d="M35.4727 8C36.4228 6.93849 37.0005 5.53671 37.0005 4C37.0005 2.46329 36.4228 1.06151 35.4727 0H122C124.209 0 126 1.79086 126 4C126 6.20914 124.209 8 122 8H35.4727ZM26.5283 8H4C1.79086 8 0 6.20914 0 4C0 1.79086 1.79086 0 4 0H26.5283C25.5782 1.06151 25.0005 2.46329 25.0005 4C25.0005 5.53671 25.5782 6.93849 26.5283 8Z" fill="#DADADA" fill-opacity="0.4"/>
<circle cx="31" cy="4" r="4" fill="#F5F4F4"/>
</svg>
