<svg width="126" height="8" viewBox="0 0 126 8" fill="none" xmlns="http://www.w3.org/2000/svg">
<path fill-rule="evenodd" clip-rule="evenodd" d="M83.4727 8C84.4228 6.93849 85.0005 5.53671 85.0005 4C85.0005 2.46329 84.4228 1.06151 83.4727 0H122C124.209 0 126 1.79086 126 4C126 6.20914 124.209 8 122 8H83.4727ZM74.5283 8H4C1.79086 8 0 6.20914 0 4C0 1.79086 1.79086 0 4 0H74.5283C73.5782 1.06151 73.0005 2.46329 73.0005 4C73.0005 5.53671 73.5782 6.93849 74.5283 8Z" fill="#DADADA" fill-opacity="0.4"/>
<circle cx="79" cy="4" r="4" fill="#F5F4F4"/>
</svg>
