<svg width="126" height="8" viewBox="0 0 126 8" fill="none" xmlns="http://www.w3.org/2000/svg">
<path fill-rule="evenodd" clip-rule="evenodd" d="M100.472 8C101.422 6.93849 102 5.53671 102 4C102 2.46329 101.422 1.06151 100.472 0H122C124.209 0 126 1.79086 126 4C126 6.20914 124.209 8 122 8H100.472ZM91.5278 8H4C1.79086 8 0 6.20914 0 4C0 1.79086 1.79086 0 4 0H91.5278C90.5777 1.06151 90 2.46329 90 4C90 5.53671 90.5777 6.93849 91.5278 8Z" fill="url(#paint0_radial_1010_1129)"/>
<circle cx="95.9995" cy="4" r="4" fill="#F5F4F4"/>
<defs>
<radialGradient id="paint0_radial_1010_1129" cx="0" cy="0" r="1" gradientUnits="userSpaceOnUse" gradientTransform="translate(63 3.99995) scale(63 756.25)">
<stop stop-color="#545454" stop-opacity="0.4"/>
<stop offset="0.451233" stop-color="#8A8A8A" stop-opacity="0.4"/>
<stop offset="1" stop-color="#DADADA"/>
<stop offset="1" stop-color="#DADADA" stop-opacity="0.4"/>
</radialGradient>
</defs>
</svg>
